<svg width="96" height="96" viewBox="0 0 96 96" fill="none" xmlns="http://www.w3.org/2000/svg">
<rect width="96" height="96" fill="#05EF7E"/>
<path d="M29.6736 24C31.124 24 32.3304 25.4029 33.2927 28.2088L34.9454 34.1919C35.8101 37.6167 37.0095 42.9671 38.5436 50.243C38.6552 50.243 38.711 50.3462 38.711 50.5525H39.0457C39.0457 49.851 41.5073 45.6973 46.4304 38.0912C46.9743 37.4447 47.581 37.094 48.2504 37.039C49.1848 36.9427 49.9798 37.2384 50.6353 37.9261C51.6255 39.2878 52.7412 43.7717 53.9825 51.3778H54.3172C55.6282 46.7563 57.2738 41.571 59.2543 35.8217C59.7006 34.1712 60.4118 32.4451 61.3881 30.6433C62.2109 28.6077 64.5051 27.7411 68.2707 28.0437C70.9903 28.0437 73.4588 28.6902 75.6763 29.9831C77.3778 30.8634 78.1449 32.2113 77.9775 34.0268C77.8241 35.6086 76.4504 39.1228 73.8563 44.5694C70.3557 52.6156 67.2945 59.4171 64.6725 64.9738C62.9571 68.5361 61.1998 70.5855 59.4007 71.1219C57.0856 71.8509 54.896 72.126 52.8319 71.9472C50.712 71.9472 49.0733 70.7024 47.9157 68.2129C46.8837 65.8472 46.2282 62.8763 45.9492 59.3002C41.9884 64.7606 39.3037 68.2198 37.8951 69.6777C37.1838 70.3792 36.1448 70.6474 34.778 70.4823C33.3834 70.4823 31.2496 69.6708 28.3766 68.0479C25.4757 65.132 22.3517 56.9826 19.0045 43.5997C18.2374 40.3125 17.9097 37.3966 18.0213 34.8521C18.0213 33.2291 19.6879 31.0215 23.0211 28.2294C26.3822 25.4098 28.5997 24 29.6736 24Z" fill="black"/>
</svg>
