<svg width="11" height="19" viewBox="0 0 11 19" fill="none" xmlns="http://www.w3.org/2000/svg">
<path d="M7.60001 5.075C7.60001 4.35833 7.36267 3.78333 6.88801 3.35C6.41334 2.91667 5.78401 2.7 5.00001 2.7C4.51667 2.7 4.07934 2.80433 3.68801 3.013C3.29667 3.22167 2.95901 3.52567 2.67501 3.925C2.40834 4.30833 2.04567 4.52933 1.58701 4.588C1.12834 4.64667 0.732675 4.52567 0.400008 4.225C0.166675 4.00833 0.0376746 3.74167 0.0130079 3.425C-0.0116588 3.10833 0.0673412 2.80833 0.250008 2.525C0.783341 1.725 1.46267 1.10433 2.28801 0.663C3.11334 0.221667 4.01734 0.000666667 5.00001 0C6.61667 0 7.92934 0.458333 8.93801 1.375C9.94667 2.29167 10.4507 3.49167 10.45 4.975C10.45 5.725 10.2917 6.4 9.97501 7C9.65834 7.6 9.07501 8.30833 8.22501 9.125C7.60834 9.70833 7.19168 10.1627 6.97501 10.488C6.75834 10.8133 6.61667 11.184 6.55001 11.6C6.48334 12 6.31234 12.3333 6.03701 12.6C5.76167 12.8667 5.43267 13 5.05001 13C4.66734 13 4.33834 12.871 4.06301 12.613C3.78767 12.355 3.65001 12.034 3.65001 11.65C3.65001 11 3.79167 10.4043 4.07501 9.863C4.35834 9.32167 4.83334 8.75067 5.50001 8.15C6.35001 7.4 6.91267 6.821 7.18801 6.413C7.46334 6.005 7.60068 5.559 7.60001 5.075ZM5.00001 19C4.45001 19 3.97934 18.8043 3.58801 18.413C3.19667 18.0217 3.00067 17.5507 3.00001 17C2.99934 16.4493 3.19534 15.9787 3.58801 15.588C3.98067 15.1973 4.45134 15.0013 5.00001 15C5.54867 14.9987 6.01967 15.1947 6.41301 15.588C6.80634 15.9813 7.00201 16.452 7.00001 17C6.99801 17.548 6.80234 18.019 6.41301 18.413C6.02367 18.807 5.55267 19.0027 5.00001 19Z" fill="#B3B3B3"/>
</svg>
