<svg width="22" height="22" viewBox="0 0 22 22" fill="none" xmlns="http://www.w3.org/2000/svg">
<path d="M14.5 22C13.1167 22 11.829 21.6417 10.637 20.925C9.445 20.2083 8.53267 19.25 7.9 18.05C7.76667 17.7667 7.7 17.4793 7.7 17.188C7.7 16.8967 7.78333 16.6173 7.95 16.35C8.11667 16.0827 8.33333 15.8743 8.6 15.725C8.86667 15.5757 9.15833 15.5007 9.475 15.5H15.7C15.7167 15.3167 15.7293 15.1377 15.738 14.963C15.7467 14.7883 15.7507 14.609 15.75 14.425C15.75 14.275 15.746 14.121 15.738 13.963C15.73 13.805 15.7173 13.6507 15.7 13.5H15.225C14.9417 13.5 14.704 13.404 14.512 13.212C14.32 13.02 14.2243 12.7827 14.225 12.5C14.2257 12.2173 14.3217 11.98 14.513 11.788C14.7043 11.596 14.9417 11.5 15.225 11.5H19.1C18.8667 11.1333 18.5917 10.8043 18.275 10.513C17.9583 10.2217 17.6083 9.96734 17.225 9.75C16.9417 9.6 16.75 9.38334 16.65 9.1C16.55 8.81667 16.5583 8.55 16.675 8.3C16.7917 8.05 16.9667 7.875 17.2 7.775C17.4333 7.675 17.6583 7.68334 17.875 7.8C19.1417 8.43334 20.146 9.354 20.888 10.562C21.63 11.77 22.0007 13.0827 22 14.5C22 16.5833 21.271 18.3543 19.813 19.813C18.355 21.2717 16.584 22.0007 14.5 22ZM12.125 19.45C12.0083 19.1167 11.9043 18.7917 11.813 18.475C11.7217 18.1583 11.6423 17.8333 11.575 17.5H9.9C10.1833 17.9167 10.5123 18.2917 10.887 18.625C11.2617 18.9583 11.6743 19.2333 12.125 19.45ZM14.5 19.8C14.7 19.4333 14.871 19.0583 15.013 18.675C15.155 18.2917 15.2757 17.9 15.375 17.5H13.625C13.725 17.9 13.85 18.2917 14 18.675C14.15 19.0583 14.3167 19.4333 14.5 19.8ZM16.875 19.45C17.325 19.2333 17.7377 18.9583 18.113 18.625C18.4883 18.2917 18.8173 17.9167 19.1 17.5H17.425C17.3417 17.8333 17.2583 18.1583 17.175 18.475C17.0917 18.7917 16.9917 19.1167 16.875 19.45ZM17.7 15.5H19.9C19.9333 15.3333 19.9583 15.1707 19.975 15.012C19.9917 14.8533 20 14.6827 20 14.5C20 14.3173 19.9917 14.1463 19.975 13.987C19.9583 13.8277 19.9333 13.6653 19.9 13.5H17.7C17.7167 13.65 17.7293 13.8043 17.738 13.963C17.7467 14.1217 17.7507 14.2757 17.75 14.425C17.75 14.6083 17.746 14.7877 17.738 14.963C17.73 15.1383 17.7173 15.3173 17.7 15.5ZM7.5 15C5.41667 15 3.64567 14.271 2.187 12.813C0.728334 11.355 -0.00066621 9.584 4.5683e-07 7.5C0.000667123 5.416 0.73 3.64534 2.188 2.188C3.646 0.730669 5.41667 0.00133516 7.5 1.82482e-06C9.58333 -0.00133151 11.3543 0.728002 12.813 2.188C14.2717 3.648 15.0007 5.41867 15 7.5C14.9993 9.58134 14.2703 11.3523 12.813 12.813C11.3557 14.2737 9.58467 15.0027 7.5 15ZM7.5 13C9.01667 13 10.3127 12.4627 11.388 11.388C12.4633 10.3133 13.0007 9.01733 13 7.5C12.9993 5.98267 12.462 4.687 11.388 3.613C10.314 2.539 9.018 2.00134 7.5 2C5.982 1.99867 4.68633 2.53633 3.613 3.613C2.53967 4.68967 2.002 5.98534 2 7.5C1.998 9.01467 2.53567 10.3107 3.613 11.388C4.69033 12.4653 5.986 13.0027 7.5 13ZM5 7C5.28333 7 5.521 6.904 5.713 6.712C5.905 6.52 6.00067 6.28267 6 6C5.99933 5.71734 5.90333 5.48 5.712 5.288C5.52067 5.096 5.28333 5 5 5C4.71667 5 4.47933 5.096 4.288 5.288C4.09667 5.48 4.00067 5.71734 4 6C3.99933 6.28267 4.09533 6.52034 4.288 6.713C4.48067 6.90567 4.718 7.00134 5 7ZM7.5 11.4C8.3 11.4 9.01267 11.175 9.638 10.725C10.2633 10.275 10.7173 9.7 11 9H4C4.28333 9.7 4.73767 10.275 5.363 10.725C5.98833 11.175 6.70067 11.4 7.5 11.4ZM10 7C10.2833 7 10.521 6.904 10.713 6.712C10.905 6.52 11.0007 6.28267 11 6C10.9993 5.71734 10.9033 5.48 10.712 5.288C10.5207 5.096 10.2833 5 10 5C9.71667 5 9.47933 5.096 9.288 5.288C9.09667 5.48 9.00067 5.71734 9 6C8.99933 6.28267 9.09533 6.52034 9.288 6.713C9.48067 6.90567 9.718 7.00134 10 7Z" fill="#B3B3B3"/>
</svg>
